<svg xmlns="http://www.w3.org/2000/svg" width="24" height="24" viewBox="188 1308 24 24" fill="none" role="img">
<g id="Country=IE" clip-path="url(#clip108_8205_11341)">
<path id="Vector_669" d="M200 1332C206.627 1332 212 1326.63 212 1320C212 1313.37 206.627 1308 200 1308C193.373 1308 188 1313.37 188 1320C188 1326.63 193.373 1332 200 1332Z" fill="#F0F0F0"/>
<path id="Vector_670" d="M212 1320C212 1314.84 208.743 1310.44 204.174 1308.75V1331.25C208.743 1329.56 212 1325.16 212 1320Z" fill="#FF9811"/>
<path id="Vector_671" d="M188 1320C188 1325.16 191.257 1329.56 195.826 1331.25V1308.75C191.257 1310.44 188 1314.84 188 1320Z" fill="#6DA544"/>
</g>
<defs><clipPath id="clip108_8205_11341">
<rect width="24" height="24" fill="white" transform="translate(188 1308)"/>
</clipPath></defs>
</svg>
